<mxfile host="app.diagrams.net" modified="2024-04-07T14:18:18.749Z" agent="Mozilla/5.0 (Windows NT 10.0; Win64; x64) AppleWebKit/537.36 (KHTML, like Gecko) Chrome/123.0.0.0 Safari/537.36" version="24.2.2" etag="tkQwyHbtarnoPR0T_DQs" type="github">
  <diagram name="PÃ¡gina-1" id="24l4_H03I2lrVra-ntpF">
    <mxGraphModel>
      <root>
        <mxCell id="0" />
        <mxCell id="1" parent="0" />
      </root>
    </mxGraphModel>
  </diagram>
</mxfile>
